HIERARCHY
ROOT joint_Root
{
	OFFSET 0.0 0.0 0.0
	CHANNELS 6 Xposition Yposition Zposition Zrotation Xrotation Yrotation 
	JOINT Hips
	{
		OFFSET -17.1583 93.1646 452.98
		CHANNELS 6 Xposition Yposition Zposition Zrotation Xrotation Yrotation 
		JOINT Spine
		{
			OFFSET 15.7357 0.0 0.0
			CHANNELS 6 Xposition Yposition Zposition Zrotation Xrotation Yrotation 
			JOINT Chest
			{
				OFFSET 8.98455 -0.406207 0.0
				CHANNELS 6 Xposition Yposition Zposition Zrotation Xrotation Yrotation 
				JOINT Neck
				{
					OFFSET 16.3773 0.0 0.0
					CHANNELS 6 Xposition Yposition Zposition Zrotation Xrotation Yrotation 
					JOINT Head
					{
						OFFSET 6.45672 0.0 0.0
						CHANNELS 6 Xposition Yposition Zposition Zrotation Xrotation Yrotation 
						End Site
						{
							OFFSET 0.0 0.0 0.0
						}
					}
				}
				JOINT Shoulder_L
				{
					OFFSET 12.9942 -0.242716 4.98039
					CHANNELS 6 Xposition Yposition Zposition Zrotation Xrotation Yrotation 
					JOINT UpperArm_L
					{
						OFFSET 5.34809 0.0 0.0
						CHANNELS 6 Xposition Yposition Zposition Zrotation Xrotation Yrotation 
						JOINT LowerArm_L
						{
							OFFSET 24.3286 1.87007e-05 0.0
							CHANNELS 6 Xposition Yposition Zposition Zrotation Xrotation Yrotation 
							JOINT Hand_L
							{
								OFFSET 22.2916 0.0 0.0
								CHANNELS 6 Xposition Yposition Zposition Zrotation Xrotation Yrotation 
								End Site
								{
									OFFSET 0.0 0.0 0.0
								}
							}
						}
					}
				}
				JOINT Shoulder_R
				{
					OFFSET 12.9945 -0.242716 -4.98039
					CHANNELS 6 Xposition Yposition Zposition Zrotation Xrotation Yrotation 
					JOINT UpperArm_R
					{
						OFFSET -5.34813 0.0 0.0
						CHANNELS 6 Xposition Yposition Zposition Zrotation Xrotation Yrotation 
						JOINT LowerArm_R
						{
							OFFSET -24.3289 0.000322201 0.0
							CHANNELS 6 Xposition Yposition Zposition Zrotation Xrotation Yrotation 
							JOINT Hand_R
							{
								OFFSET -22.2915 -0.000108084 0.0
								CHANNELS 6 Xposition Yposition Zposition Zrotation Xrotation Yrotation 
								End Site
								{
									OFFSET 0.0 0.0 0.0
								}
							}
						}
					}
				}
			}
		}
		JOINT UpperLeg_L
		{
			OFFSET -2.19248 -6.46944 0.0
			CHANNELS 6 Xposition Yposition Zposition Zrotation Xrotation Yrotation 
			JOINT LowerLeg_L
			{
				OFFSET 39.0811 0.0 -1.23785e-05
				CHANNELS 6 Xposition Yposition Zposition Zrotation Xrotation Yrotation 
				JOINT Foot_L
				{
					OFFSET 40.9854 0.0 -1.26872e-05
					CHANNELS 6 Xposition Yposition Zposition Zrotation Xrotation Yrotation 
					JOINT Toes_L
					{
						OFFSET 11.7543 0.0 0.0
						CHANNELS 6 Xposition Yposition Zposition Zrotation Xrotation Yrotation 
						End Site
						{
							OFFSET 0.0 0.0 0.0
						}
					}
				}
			}
		}
		JOINT UpperLeg_R
		{
			OFFSET -2.19251 6.46944 0.0
			CHANNELS 6 Xposition Yposition Zposition Zrotation Xrotation Yrotation 
			JOINT LowerLeg_R
			{
				OFFSET -39.0811 -0.00228153 -0.0401928
				CHANNELS 6 Xposition Yposition Zposition Zrotation Xrotation Yrotation 
				JOINT Foot_R
				{
					OFFSET -40.9854 0.0 0.0
					CHANNELS 6 Xposition Yposition Zposition Zrotation Xrotation Yrotation 
					JOINT Toes_R
					{
						OFFSET -11.7543 0.0 0.0
						CHANNELS 6 Xposition Yposition Zposition Zrotation Xrotation Yrotation 
						End Site
						{
							OFFSET 0.0 0.0 0.0
						}
					}
				}
			}
		}
	}
}
MOTION
Frames:	4
Frame Time:	0.0333333
0.000000 0.000000 0.000000 0.000000 0.000000 -0.000000 -1.218950 93.052800 0.045848 88.763400 1.972810 2.121180 15.735700 0.000005 -0.000001 112.350000 86.311500 -112.108000 8.984550 -0.406207 -0.000000 -0.948904 2.786270 0.505705 16.377300 -0.000001 -0.000001 2.793830 -0.214104 -0.532820 6.456720 -0.000001 -0.000000 0.029406 -2.161580 3.266140 12.994200 -0.242716 4.980390 -93.179800 9.642060 -71.650100 5.348090 -0.000007 -0.000001 -64.294600 8.748760 -6.824560 24.328600 0.000019 0.000005 7.869790 32.168100 -14.556100 22.291600 -0.000001 0.000005 -15.025700 5.303820 -0.068365 12.994500 -0.242716 -4.980390 88.600000 5.322300 -75.239700 -5.348130 -0.000001 -0.000004 -72.950600 28.683200 -3.020020 -24.328900 0.000322 -0.000009 0.474496 1.491870 -17.684500 -22.291500 -0.000108 -0.000004 1.330230 5.311970 -0.268283 -2.192480 -6.469440 -0.000000 -173.476000 -3.482120 0.579872 39.081100 -0.000007 -0.000012 0.025474 -0.098281 14.531400 40.985400 -0.000006 -0.000013 -1.631310 12.870000 -68.405200 11.754300 -0.000000 0.000003 -0.000279 0.172188 -9.592690 -2.192510 6.469440 -0.000001 176.792000 6.169900 -177.452000 -39.081100 -0.002282 -0.040193 0.020812 -0.077431 12.719700 -40.985400 0.000008 0.000006 -5.844090 4.751230 -68.489300 -11.754300 -0.000006 -0.000006 -0.010240 0.273089 -5.478030
0.000000 0.000000 0.000000 0.000000 0.000000 -0.000000 -1.340410 93.057000 0.164838 88.639900 1.737580 1.793300 15.735700 0.000005 -0.000001 113.744000 86.290300 -113.457000 8.984550 -0.406207 -0.000000 -0.982141 2.964920 0.599303 16.377300 -0.000001 -0.000001 1.273950 -0.462377 0.596472 6.456720 -0.000001 -0.000000 -1.088120 -2.395480 5.822500 12.994200 -0.242716 4.980390 -92.916500 8.826860 -71.633600 5.348090 -0.000007 -0.000001 -61.033000 3.258360 -9.548050 24.328600 0.000019 0.000005 6.554770 36.090400 -11.039000 22.291600 -0.000001 0.000005 -20.637000 5.362150 -1.758420 12.994500 -0.242716 -4.980390 88.497600 5.729600 -75.280600 -5.348130 -0.000001 -0.000004 -72.247200 26.435600 -2.410150 -24.328900 0.000322 -0.000009 0.313219 0.988096 -17.639600 -22.291500 -0.000108 -0.000004 0.523366 5.353830 -1.495180 -2.192480 -6.469440 -0.000000 -173.268000 -3.668590 0.450435 39.081100 -0.000007 -0.000012 0.024562 -0.095914 14.364300 40.985400 -0.000006 -0.000013 -1.742420 12.814100 -68.404600 11.754300 -0.000000 0.000003 -0.000275 0.172137 -9.594770 -2.192510 6.469440 -0.000001 176.902000 6.731180 -177.636000 -39.081100 -0.002282 -0.040193 0.018228 -0.067053 12.522500 -40.985400 0.000008 0.000006 -5.930910 5.529340 -68.299900 -11.754300 -0.000006 -0.000006 -0.010224 0.272975 -5.482670
0.000000 0.000000 0.000000 0.000000 0.000000 -0.000000 -1.399500 93.121100 0.284255 88.497100 1.513790 0.884951 15.735700 0.000005 -0.000001 113.949000 86.671600 -113.403000 8.984550 -0.406207 -0.000000 -1.695290 2.656400 1.131430 16.377300 -0.000001 -0.000001 -0.299060 -0.418536 1.376740 6.456720 -0.000001 -0.000000 -2.025260 -2.271750 8.282930 12.994200 -0.242716 4.980390 -92.481900 7.407560 -71.417100 5.348090 -0.000007 -0.000001 -57.196600 -4.118870 -11.724200 24.328600 0.000019 0.000005 3.659550 37.708500 -5.970390 22.291600 -0.000001 0.000005 -24.304000 5.358870 -1.636650 12.994500 -0.242716 -4.980390 88.445500 5.877410 -75.157300 -5.348130 -0.000001 -0.000004 -71.439700 22.999900 -2.235670 -24.328900 0.000322 -0.000009 0.134612 0.474377 -15.957700 -22.291500 -0.000108 -0.000004 1.015750 5.356150 -1.566490 -2.192480 -6.469440 -0.000000 -173.100000 -4.196920 0.023673 39.081100 -0.000007 -0.000012 0.022848 -0.094003 13.661300 40.985400 -0.000006 -0.000013 -1.835170 13.012700 -68.301800 11.754300 -0.000000 0.000003 -0.000389 0.173926 -9.522090 -2.192510 6.469440 -0.000001 176.999000 7.165910 -178.072000 -39.081100 -0.002282 -0.040193 0.010583 -0.035336 11.589600 -40.985400 0.000008 0.000006 -6.834760 6.261100 -67.502100 -11.754300 -0.000006 -0.000006 -0.010407 0.274323 -5.427530
0.000000 0.000000 0.000000 0.000000 0.000000 -0.000000 -1.388820 93.243700 0.360872 88.338100 1.050430 -0.373926 15.735700 0.000005 -0.000001 113.729000 87.242100 -112.734000 8.984550 -0.406207 -0.000000 -2.735050 2.127650 2.041990 16.377300 -0.000001 -0.000001 -1.988290 -0.203236 2.079080 6.456720 -0.000001 -0.000000 -2.818030 -1.749050 10.050700 12.994200 -0.242716 4.980390 -92.004900 5.850830 -71.046800 5.348090 -0.000007 -0.000001 -52.271500 -13.251000 -13.226700 24.328600 0.000019 0.000005 1.111470 40.764700 -1.702770 22.291600 -0.000001 0.000005 -24.378400 5.318200 -0.448527 12.994500 -0.242716 -4.980390 88.452900 5.757220 -74.931100 -5.348130 -0.000001 -0.000004 -70.421300 19.332600 -2.105570 -24.328900 0.000322 -0.000009 0.345349 1.333280 -14.572300 -22.291500 -0.000108 -0.000004 2.792230 5.320270 -0.510963 -2.192480 -6.469440 -0.000000 -172.992000 -5.200850 -0.408148 39.081100 -0.000007 -0.000012 0.023059 -0.105555 12.323400 40.985400 -0.000006 -0.000013 -1.935520 13.387200 -67.961700 11.754300 -0.000000 0.000003 -0.000475 0.175269 -9.467540 -2.192510 6.469440 -0.000001 177.091000 7.050580 -178.464000 -39.081100 -0.002282 -0.040193 0.004231 -0.005222 9.689570 -40.985400 0.000008 0.000006 -8.481120 6.709700 -65.983500 -11.754300 -0.000006 -0.000006 -0.010360 0.273973 -5.441830
